<?xml version="1.0" standalone="no"?>
<!DOCTYPE svg PUBLIC "-//W3C//DTD SVG 20010904//EN"
 "http://www.w3.org/TR/2001/REC-SVG-20010904/DTD/svg10.dtd">
<svg version="1.0" xmlns="http://www.w3.org/2000/svg"
 width="2439.000000pt" height="1667.000000pt" viewBox="0 0 2439.000000 1667.000000"
 preserveAspectRatio="xMidYMid meet">

<g transform="translate(0.000000,1667.000000) scale(0.100000,-0.100000)"
fill="#ffffff" stroke="none">
<path d="M4210 15292 c-43 -12 -68 -28 -116 -77 -343 -341 -659 -2145 -744
-4254 -20 -479 -10 -1663 15 -1775 2 -10 -23 -73 -56 -138 -375 -748 -589
-1602 -639 -2548 -10 -196 1 -855 21 -1180 90 -1514 814 -2927 2075 -4050 52
-46 160 -141 393 -344 l134 -116 6517 0 6518 0 277 273 c749 735 866 860 1115
1192 461 615 796 1301 980 2008 22 86 67 290 100 454 72 362 77 437 87 1158 6
528 0 709 -38 1050 -83 754 -288 1474 -596 2088 l-64 128 13 197 c17 261 17
1383 0 1722 -74 1489 -236 2738 -458 3512 -116 408 -235 629 -369 689 -104 47
-330 36 -575 -28 -751 -194 -2197 -918 -3506 -1755 l-172 -109 -209 65 c-1025
318 -2122 464 -3328 443 -1121 -20 -2060 -163 -2975 -453 l-175 -56 -195 124
c-964 616 -2172 1257 -2930 1556 -302 118 -555 195 -750 227 -122 19 -278 18
-350 -3z m4251 -4129 c86 -27 451 -216 744 -385 341 -196 482 -280 1325 -788
709 -428 1042 -623 1145 -672 85 -40 127 -37 228 13 136 69 448 252 1147 674
1045 631 1484 886 1790 1041 278 140 312 149 486 119 479 -82 1172 -467 1824
-1013 926 -774 1643 -1773 2007 -2792 471 -1324 382 -2658 -268 -3970 -412
-833 -977 -1543 -1734 -2179 l-120 -101 -5257 0 -5257 0 -63 52 c-649 536
-1189 1163 -1588 1843 -103 177 -290 550 -359 720 -444 1080 -526 2100 -255
3167 116 458 326 968 579 1408 503 875 1293 1715 2160 2297 260 174 661 388
876 467 281 103 475 136 590 99z"/>
<path d="M7760 6989 c-427 -24 -873 -92 -1250 -190 -183 -48 -431 -129 -499
-163 -93 -48 -129 -124 -71 -153 43 -22 110 -14 273 32 1073 303 2484 335
3547 80 201 -49 245 -53 290 -30 38 20 46 48 23 88 -28 48 -107 90 -249 131
-572 169 -1345 245 -2064 205z"/>
<path d="M14990 6990 c-431 -27 -856 -94 -1205 -190 -177 -49 -243 -78 -284
-126 -36 -40 -39 -73 -11 -99 37 -33 102 -30 280 13 1071 264 2494 233 3589
-77 187 -53 253 -54 281 -1 16 30 -11 72 -68 109 -91 58 -519 187 -827 250
-240 48 -467 80 -755 106 -208 19 -793 27 -1000 15z"/>
<path d="M9156 4507 c-33 -35 -90 -110 -126 -168 -75 -122 -241 -447 -324
-637 -45 -102 -63 -133 -80 -137 -184 -37 -231 -56 -270 -108 l-20 -27 25 -25
c47 -48 108 -51 444 -21 648 56 1394 103 2190 137 356 16 1207 16 1565 0 777
-33 1469 -76 2070 -128 388 -34 492 -35 540 -7 96 55 -1 137 -204 173 -33 6
-60 12 -60 13 -1 2 -30 68 -65 148 -36 80 -102 219 -147 310 -186 370 -311
540 -398 540 -69 0 -218 -217 -453 -661 l-116 -220 -46 5 c-64 8 -416 33 -726
51 -999 58 -1763 48 -2880 -35 -137 -10 -251 -16 -253 -12 -11 32 -239 452
-299 551 -137 228 -216 321 -275 321 -24 0 -42 -13 -92 -63z"/>
</g>
</svg>
